<mxfile host="app.diagrams.net" agent="Mozilla/5.0 (Macintosh; Intel Mac OS X 10_15_7) AppleWebKit/537.36 (KHTML, like Gecko) Chrome/133.0.0.0 Safari/537.36 Edg/133.0.0.0" version="26.1.0">
  <diagram name="第 1 页" id="nLsq5W9adssXxSma-b2J">
    <mxGraphModel dx="976" dy="611" grid="1" gridSize="10" guides="1" tooltips="1" connect="1" arrows="1" fold="1" page="1" pageScale="1" pageWidth="827" pageHeight="1169" math="0" shadow="0">
      <root>
        <mxCell id="0" />
        <mxCell id="1" parent="0" />
        <mxCell id="k-FFmGOtWd7WNj8LAz9l-5" style="edgeStyle=orthogonalEdgeStyle;rounded=0;orthogonalLoop=1;jettySize=auto;html=1;entryX=0.5;entryY=0;entryDx=0;entryDy=0;fillColor=#dae8fc;strokeColor=light-dark(#00040a, #5c79a3);" parent="1" source="k-FFmGOtWd7WNj8LAz9l-1" target="k-FFmGOtWd7WNj8LAz9l-4" edge="1">
          <mxGeometry relative="1" as="geometry" />
        </mxCell>
        <mxCell id="k-FFmGOtWd7WNj8LAz9l-1" value="开始" style="ellipse;whiteSpace=wrap;html=1;fillColor=#fff2cc;strokeColor=#d6b656;" parent="1" vertex="1">
          <mxGeometry x="310" y="60" width="110" height="70" as="geometry" />
        </mxCell>
        <mxCell id="k-FFmGOtWd7WNj8LAz9l-7" style="edgeStyle=orthogonalEdgeStyle;rounded=0;orthogonalLoop=1;jettySize=auto;html=1;fillColor=#dae8fc;strokeColor=#000000;" parent="1" source="k-FFmGOtWd7WNj8LAz9l-4" target="k-FFmGOtWd7WNj8LAz9l-6" edge="1">
          <mxGeometry relative="1" as="geometry" />
        </mxCell>
        <mxCell id="k-FFmGOtWd7WNj8LAz9l-4" value="参数设置 - 设置时间参数为事件时间&lt;div&gt;设置运行模式为流式计算&lt;/div&gt;" style="rounded=1;whiteSpace=wrap;html=1;fillColor=#dae8fc;strokeColor=#6c8ebf;" parent="1" vertex="1">
          <mxGeometry x="260" y="160" width="210" height="50" as="geometry" />
        </mxCell>
        <mxCell id="k-FFmGOtWd7WNj8LAz9l-6" value="将消息转换成流" style="rounded=1;whiteSpace=wrap;html=1;fillColor=#dae8fc;strokeColor=#6c8ebf;" parent="1" vertex="1">
          <mxGeometry x="305" y="250" width="120" height="60" as="geometry" />
        </mxCell>
        <mxCell id="k-FFmGOtWd7WNj8LAz9l-10" style="edgeStyle=orthogonalEdgeStyle;rounded=0;orthogonalLoop=1;jettySize=auto;html=1;entryX=1;entryY=0.5;entryDx=0;entryDy=0;" parent="1" source="k-FFmGOtWd7WNj8LAz9l-8" target="k-FFmGOtWd7WNj8LAz9l-6" edge="1">
          <mxGeometry relative="1" as="geometry" />
        </mxCell>
        <mxCell id="k-FFmGOtWd7WNj8LAz9l-11" value="拉取消息" style="edgeLabel;html=1;align=center;verticalAlign=middle;resizable=0;points=[];" parent="k-FFmGOtWd7WNj8LAz9l-10" vertex="1" connectable="0">
          <mxGeometry x="0.1407" y="-1" relative="1" as="geometry">
            <mxPoint as="offset" />
          </mxGeometry>
        </mxCell>
        <mxCell id="k-FFmGOtWd7WNj8LAz9l-8" value="Kafka" style="shape=cylinder3;whiteSpace=wrap;html=1;boundedLbl=1;backgroundOutline=1;size=15;fillColor=#fff2cc;strokeColor=#d6b656;" parent="1" vertex="1">
          <mxGeometry x="560" y="240" width="60" height="80" as="geometry" />
        </mxCell>
        <mxCell id="dhZsIAXVxOgwsgvTThV_-3" style="edgeStyle=orthogonalEdgeStyle;rounded=0;orthogonalLoop=1;jettySize=auto;html=1;" edge="1" parent="1" source="k-FFmGOtWd7WNj8LAz9l-9" target="k-FFmGOtWd7WNj8LAz9l-24">
          <mxGeometry relative="1" as="geometry" />
        </mxCell>
        <mxCell id="dhZsIAXVxOgwsgvTThV_-4" style="edgeStyle=orthogonalEdgeStyle;rounded=0;orthogonalLoop=1;jettySize=auto;html=1;entryX=0.5;entryY=0;entryDx=0;entryDy=0;" edge="1" parent="1" source="k-FFmGOtWd7WNj8LAz9l-9" target="k-FFmGOtWd7WNj8LAz9l-25">
          <mxGeometry relative="1" as="geometry">
            <Array as="points">
              <mxPoint x="245" y="460" />
              <mxPoint x="453" y="460" />
            </Array>
          </mxGeometry>
        </mxCell>
        <mxCell id="k-FFmGOtWd7WNj8LAz9l-9" value="根据 instance_id 分组数据" style="rounded=1;whiteSpace=wrap;html=1;fillColor=#ffe6cc;strokeColor=#d79b00;" parent="1" vertex="1">
          <mxGeometry x="185" y="380" width="120" height="60" as="geometry" />
        </mxCell>
        <mxCell id="dhZsIAXVxOgwsgvTThV_-6" style="edgeStyle=orthogonalEdgeStyle;rounded=0;orthogonalLoop=1;jettySize=auto;html=1;entryX=0.75;entryY=0;entryDx=0;entryDy=0;" edge="1" parent="1" source="k-FFmGOtWd7WNj8LAz9l-12" target="k-FFmGOtWd7WNj8LAz9l-25">
          <mxGeometry relative="1" as="geometry">
            <Array as="points">
              <mxPoint x="485" y="480" />
              <mxPoint x="484" y="480" />
            </Array>
          </mxGeometry>
        </mxCell>
        <mxCell id="dhZsIAXVxOgwsgvTThV_-7" style="edgeStyle=orthogonalEdgeStyle;rounded=0;orthogonalLoop=1;jettySize=auto;html=1;entryX=0.75;entryY=0;entryDx=0;entryDy=0;" edge="1" parent="1" source="k-FFmGOtWd7WNj8LAz9l-12" target="k-FFmGOtWd7WNj8LAz9l-24">
          <mxGeometry relative="1" as="geometry">
            <Array as="points">
              <mxPoint x="485" y="480" />
              <mxPoint x="293" y="480" />
            </Array>
          </mxGeometry>
        </mxCell>
        <mxCell id="k-FFmGOtWd7WNj8LAz9l-12" value="根据 peer 字段分组数据" style="rounded=1;whiteSpace=wrap;html=1;fillColor=#ffe6cc;strokeColor=#d79b00;" parent="1" vertex="1">
          <mxGeometry x="425" y="380" width="120" height="60" as="geometry" />
        </mxCell>
        <mxCell id="k-FFmGOtWd7WNj8LAz9l-13" value="" style="endArrow=classic;html=1;rounded=0;entryX=0.5;entryY=0;entryDx=0;entryDy=0;" parent="1" target="k-FFmGOtWd7WNj8LAz9l-9" edge="1">
          <mxGeometry width="50" height="50" relative="1" as="geometry">
            <mxPoint x="360" y="340" as="sourcePoint" />
            <mxPoint x="260" y="370" as="targetPoint" />
            <Array as="points">
              <mxPoint x="245" y="340" />
            </Array>
          </mxGeometry>
        </mxCell>
        <mxCell id="k-FFmGOtWd7WNj8LAz9l-19" value="Kind = &#39;server&#39; or &#39;consumer&#39;" style="edgeLabel;html=1;align=center;verticalAlign=middle;resizable=0;points=[];" parent="k-FFmGOtWd7WNj8LAz9l-13" vertex="1" connectable="0">
          <mxGeometry x="0.329" y="1" relative="1" as="geometry">
            <mxPoint as="offset" />
          </mxGeometry>
        </mxCell>
        <mxCell id="k-FFmGOtWd7WNj8LAz9l-16" value="" style="endArrow=classic;html=1;rounded=0;entryX=0.5;entryY=0;entryDx=0;entryDy=0;" parent="1" target="k-FFmGOtWd7WNj8LAz9l-12" edge="1">
          <mxGeometry width="50" height="50" relative="1" as="geometry">
            <mxPoint x="360" y="340" as="sourcePoint" />
            <mxPoint x="255" y="390" as="targetPoint" />
            <Array as="points">
              <mxPoint x="485" y="340" />
            </Array>
          </mxGeometry>
        </mxCell>
        <mxCell id="k-FFmGOtWd7WNj8LAz9l-20" value="Kind =&amp;nbsp;&#39;client or &#39;producer&#39;" style="edgeLabel;html=1;align=center;verticalAlign=middle;resizable=0;points=[];" parent="k-FFmGOtWd7WNj8LAz9l-16" vertex="1" connectable="0">
          <mxGeometry x="0.103" y="2" relative="1" as="geometry">
            <mxPoint as="offset" />
          </mxGeometry>
        </mxCell>
        <mxCell id="k-FFmGOtWd7WNj8LAz9l-17" value="" style="endArrow=none;html=1;rounded=0;entryX=0.5;entryY=1;entryDx=0;entryDy=0;" parent="1" target="k-FFmGOtWd7WNj8LAz9l-6" edge="1">
          <mxGeometry width="50" height="50" relative="1" as="geometry">
            <mxPoint x="365" y="340" as="sourcePoint" />
            <mxPoint x="367" y="310" as="targetPoint" />
          </mxGeometry>
        </mxCell>
        <mxCell id="k-FFmGOtWd7WNj8LAz9l-18" value="实例级别汇聚&lt;div&gt;Flink Job&lt;/div&gt;" style="text;html=1;align=center;verticalAlign=middle;whiteSpace=wrap;rounded=0;" parent="1" vertex="1">
          <mxGeometry x="185" y="40" width="105" height="30" as="geometry" />
        </mxCell>
        <mxCell id="k-FFmGOtWd7WNj8LAz9l-37" style="edgeStyle=orthogonalEdgeStyle;rounded=0;orthogonalLoop=1;jettySize=auto;html=1;entryX=0.5;entryY=0;entryDx=0;entryDy=0;" parent="1" source="k-FFmGOtWd7WNj8LAz9l-24" target="k-FFmGOtWd7WNj8LAz9l-30" edge="1">
          <mxGeometry relative="1" as="geometry" />
        </mxCell>
        <mxCell id="k-FFmGOtWd7WNj8LAz9l-38" style="edgeStyle=orthogonalEdgeStyle;rounded=0;orthogonalLoop=1;jettySize=auto;html=1;" parent="1" source="k-FFmGOtWd7WNj8LAz9l-24" target="k-FFmGOtWd7WNj8LAz9l-32" edge="1">
          <mxGeometry relative="1" as="geometry" />
        </mxCell>
        <mxCell id="k-FFmGOtWd7WNj8LAz9l-24" value="应用窗长 5 分钟，步长 1 分钟滑动时间窗口" style="rounded=1;whiteSpace=wrap;html=1;fillColor=#d5e8d4;strokeColor=#82b366;" parent="1" vertex="1">
          <mxGeometry x="199" y="500" width="125" height="60" as="geometry" />
        </mxCell>
        <mxCell id="k-FFmGOtWd7WNj8LAz9l-39" style="edgeStyle=orthogonalEdgeStyle;rounded=0;orthogonalLoop=1;jettySize=auto;html=1;entryX=0.5;entryY=0;entryDx=0;entryDy=0;" parent="1" source="k-FFmGOtWd7WNj8LAz9l-25" target="k-FFmGOtWd7WNj8LAz9l-33" edge="1">
          <mxGeometry relative="1" as="geometry" />
        </mxCell>
        <mxCell id="k-FFmGOtWd7WNj8LAz9l-40" style="edgeStyle=orthogonalEdgeStyle;rounded=0;orthogonalLoop=1;jettySize=auto;html=1;entryX=0.5;entryY=0;entryDx=0;entryDy=0;" parent="1" source="k-FFmGOtWd7WNj8LAz9l-25" target="k-FFmGOtWd7WNj8LAz9l-31" edge="1">
          <mxGeometry relative="1" as="geometry">
            <Array as="points">
              <mxPoint x="453" y="590" />
              <mxPoint x="620" y="590" />
            </Array>
          </mxGeometry>
        </mxCell>
        <mxCell id="k-FFmGOtWd7WNj8LAz9l-41" style="edgeStyle=orthogonalEdgeStyle;rounded=0;orthogonalLoop=1;jettySize=auto;html=1;entryX=0.5;entryY=0;entryDx=0;entryDy=0;" parent="1" source="k-FFmGOtWd7WNj8LAz9l-25" target="k-FFmGOtWd7WNj8LAz9l-32" edge="1">
          <mxGeometry relative="1" as="geometry">
            <Array as="points">
              <mxPoint x="453" y="590" />
              <mxPoint x="300" y="590" />
            </Array>
          </mxGeometry>
        </mxCell>
        <mxCell id="k-FFmGOtWd7WNj8LAz9l-25" value="应用窗口长 1 分钟，步长 1 分钟滚动时间窗口" style="rounded=1;whiteSpace=wrap;html=1;fillColor=#d5e8d4;strokeColor=#82b366;" parent="1" vertex="1">
          <mxGeometry x="390" y="500" width="125" height="60" as="geometry" />
        </mxCell>
        <mxCell id="k-FFmGOtWd7WNj8LAz9l-42" style="edgeStyle=orthogonalEdgeStyle;rounded=0;orthogonalLoop=1;jettySize=auto;html=1;entryX=0.5;entryY=0;entryDx=0;entryDy=0;" parent="1" source="k-FFmGOtWd7WNj8LAz9l-30" target="k-FFmGOtWd7WNj8LAz9l-35" edge="1">
          <mxGeometry relative="1" as="geometry">
            <Array as="points">
              <mxPoint x="140" y="720" />
              <mxPoint x="370" y="720" />
            </Array>
          </mxGeometry>
        </mxCell>
        <mxCell id="k-FFmGOtWd7WNj8LAz9l-30" value="instance_id 字段分组&lt;div&gt;&lt;span style=&quot;background-color: transparent; color: light-dark(rgb(0, 0, 0), rgb(255, 255, 255));&quot;&gt;5 min&lt;/span&gt;&lt;div&gt;结果流 1&lt;/div&gt;&lt;/div&gt;" style="rounded=1;whiteSpace=wrap;html=1;fillColor=#e1d5e7;strokeColor=#9673a6;" parent="1" vertex="1">
          <mxGeometry x="80" y="620" width="120" height="60" as="geometry" />
        </mxCell>
        <mxCell id="k-FFmGOtWd7WNj8LAz9l-47" style="edgeStyle=orthogonalEdgeStyle;rounded=0;orthogonalLoop=1;jettySize=auto;html=1;entryX=0.5;entryY=0;entryDx=0;entryDy=0;" parent="1" source="k-FFmGOtWd7WNj8LAz9l-31" target="k-FFmGOtWd7WNj8LAz9l-35" edge="1">
          <mxGeometry relative="1" as="geometry">
            <Array as="points">
              <mxPoint x="620" y="720" />
              <mxPoint x="370" y="720" />
            </Array>
          </mxGeometry>
        </mxCell>
        <mxCell id="k-FFmGOtWd7WNj8LAz9l-31" value="peer 字段分组&lt;div&gt;&lt;span style=&quot;background-color: transparent; color: light-dark(rgb(0, 0, 0), rgb(255, 255, 255));&quot;&gt;1 min&lt;/span&gt;&lt;div&gt;结果流 4&lt;/div&gt;&lt;/div&gt;" style="rounded=1;whiteSpace=wrap;html=1;fillColor=#e1d5e7;strokeColor=#9673a6;" parent="1" vertex="1">
          <mxGeometry x="560" y="620" width="120" height="60" as="geometry" />
        </mxCell>
        <mxCell id="k-FFmGOtWd7WNj8LAz9l-43" style="edgeStyle=orthogonalEdgeStyle;rounded=0;orthogonalLoop=1;jettySize=auto;html=1;" parent="1" source="k-FFmGOtWd7WNj8LAz9l-32" target="k-FFmGOtWd7WNj8LAz9l-35" edge="1">
          <mxGeometry relative="1" as="geometry">
            <Array as="points">
              <mxPoint x="300" y="720" />
              <mxPoint x="370" y="720" />
            </Array>
          </mxGeometry>
        </mxCell>
        <mxCell id="k-FFmGOtWd7WNj8LAz9l-32" value="peer 字段分组&lt;div&gt;&lt;span style=&quot;background-color: transparent; color: light-dark(rgb(0, 0, 0), rgb(255, 255, 255));&quot;&gt;5 min&lt;/span&gt;&lt;div&gt;结果流 2&lt;/div&gt;&lt;/div&gt;" style="rounded=1;whiteSpace=wrap;html=1;fillColor=#e1d5e7;strokeColor=#9673a6;" parent="1" vertex="1">
          <mxGeometry x="240" y="620" width="120" height="60" as="geometry" />
        </mxCell>
        <mxCell id="k-FFmGOtWd7WNj8LAz9l-50" style="edgeStyle=orthogonalEdgeStyle;rounded=0;orthogonalLoop=1;jettySize=auto;html=1;entryX=0.5;entryY=0;entryDx=0;entryDy=0;" parent="1" source="k-FFmGOtWd7WNj8LAz9l-33" target="k-FFmGOtWd7WNj8LAz9l-35" edge="1">
          <mxGeometry relative="1" as="geometry">
            <Array as="points">
              <mxPoint x="460" y="720" />
              <mxPoint x="370" y="720" />
            </Array>
          </mxGeometry>
        </mxCell>
        <mxCell id="k-FFmGOtWd7WNj8LAz9l-33" value="instance_id 字段分组&lt;div&gt;&lt;span style=&quot;background-color: transparent; color: light-dark(rgb(0, 0, 0), rgb(255, 255, 255));&quot;&gt;1 min&lt;/span&gt;&lt;div&gt;结果流 3&lt;/div&gt;&lt;/div&gt;" style="rounded=1;whiteSpace=wrap;html=1;fillColor=#e1d5e7;strokeColor=#9673a6;" parent="1" vertex="1">
          <mxGeometry x="400" y="620" width="120" height="60" as="geometry" />
        </mxCell>
        <mxCell id="k-FFmGOtWd7WNj8LAz9l-35" value="计算平均延时、请求数量、TP 指标等数据" style="rounded=1;whiteSpace=wrap;html=1;fillColor=#dae8fc;strokeColor=#6c8ebf;" parent="1" vertex="1">
          <mxGeometry x="310" y="750" width="120" height="60" as="geometry" />
        </mxCell>
        <mxCell id="k-FFmGOtWd7WNj8LAz9l-51" style="edgeStyle=orthogonalEdgeStyle;rounded=0;orthogonalLoop=1;jettySize=auto;html=1;entryX=1;entryY=0.5;entryDx=0;entryDy=0;entryPerimeter=0;" parent="1" source="k-FFmGOtWd7WNj8LAz9l-35" target="k-FFmGOtWd7WNj8LAz9l-8" edge="1">
          <mxGeometry relative="1" as="geometry">
            <Array as="points">
              <mxPoint x="730" y="780" />
              <mxPoint x="730" y="280" />
            </Array>
          </mxGeometry>
        </mxCell>
        <mxCell id="k-FFmGOtWd7WNj8LAz9l-52" value="将计算后的流结果分别输出到 2个 Topic" style="edgeLabel;html=1;align=center;verticalAlign=middle;resizable=0;points=[];" parent="k-FFmGOtWd7WNj8LAz9l-51" vertex="1" connectable="0">
          <mxGeometry x="0.2945" y="-1" relative="1" as="geometry">
            <mxPoint as="offset" />
          </mxGeometry>
        </mxCell>
      </root>
    </mxGraphModel>
  </diagram>
</mxfile>
